<svg height="2110" width="720" xmlns="http://www.w3.org/2000/svg">
<rect height="2110" fill="#555" width="720"></rect>
<text fill="#7f7" font-family="Courier New" font-size="12" xml:space="preserve">
<tspan x="10" y="26"></tspan>
<tspan x="10" y="42">&gt; npmdoc-statsd@0.0.2 test /home/travis/build/npmdoc/node-npmdoc-statsd</tspan>
<tspan x="10" y="58">&gt; (set -e; export PORT=$(utility2 shServerPortRandom); utility2 test test.js)</tspan>
<tspan x="10" y="74"></tspan>
<tspan x="10" y="90"></tspan>
<tspan x="10" y="106">[MODE_BUILD=npmTest] - 2017-04-08T06:53:34Z - npm-testing /home/travis/build/npmdoc/node-npmdoc-\</tspan>
<tspan x="10" y="122">statsd</tspan>
<tspan x="10" y="138"></tspan>
<tspan x="10" y="154"></tspan>
<tspan x="10" y="170">covering $ /home/travis/.nvm/versions/node/v6.10.2/bin/node /home/travis/build/npmdoc/node-npmdo\</tspan>
<tspan x="10" y="186">c-statsd/test.js</tspan>
<tspan x="10" y="202">merging file:///home/travis/build/npmdoc/node-npmdoc-statsd/tmp/build/test-report.json to test-r\</tspan>
<tspan x="10" y="218">eport</tspan>
<tspan x="10" y="234">&gt; server listening on http-port 34022</tspan>
<tspan x="10" y="250">8 Apr 06:53:35 - [4794] reading config file: undefined</tspan>
<tspan x="10" y="266">8 Apr 06:53:35 - [4794] reading config file: undefined</tspan>
<tspan x="10" y="282">created apidoc file:///home/travis/build/npmdoc/node-npmdoc-statsd/tmp/build/apidoc.html</tspan>
<tspan x="10" y="298"></tspan>
<tspan x="10" y="314"></tspan>
<tspan x="10" y="330">browserTest - created electron entry-page /home/travis/build/npmdoc/node-npmdoc-statsd/tmp/elect\</tspan>
<tspan x="10" y="346">ron.15b4c56e6140.0042f299d8c9c.html</tspan>
<tspan x="10" y="362"></tspan>
<tspan x="10" y="378">8 Apr 06:53:35 - [4794] reading config file: undefined</tspan>
<tspan x="10" y="394">8 Apr 06:53:35 - [4794] reading config file: undefined</tspan>
<tspan x="10" y="410">[node test-case 1 of 6 passed] - testCase_buildLib_default</tspan>
<tspan x="10" y="426">[node test-case 2 of 6 passed] - testCase_buildReadme_default</tspan>
<tspan x="10" y="442">[node test-case 3 of 6 passed] - testCase_buildTest_default</tspan>
<tspan x="10" y="458"></tspan>
<tspan x="10" y="474">browserTest - created electron entry-page /home/travis/build/npmdoc/node-npmdoc-statsd/tmp/elect\</tspan>
<tspan x="10" y="490">ron.15b4c56e65e0.7aff40dd71e73.html</tspan>
<tspan x="10" y="506"></tspan>
<tspan x="10" y="522">(node:4794) DeprecationWarning: process.EventEmitter is deprecated. Use require('events') instea\</tspan>
<tspan x="10" y="538">d.</tspan>
<tspan x="10" y="554">Xlib:  extension "RANDR" missing on display ":99.0".</tspan>
<tspan x="10" y="570">Xlib:  extension "RANDR" missing on display ":99.0".</tspan>
<tspan x="10" y="586">merging file:///home/travis/build/npmdoc/node-npmdoc-statsd/tmp/build/test-report.json to test-r\</tspan>
<tspan x="10" y="602">eport</tspan>
<tspan x="10" y="618">Xlib:  extension "RANDR" missing on display ":99.0".</tspan>
<tspan x="10" y="634">[4809:0408/065335:WARNING:audio_manager.cc(314)] Multiple instances of AudioManager detected</tspan>
<tspan x="10" y="650">[4809:0408/065335:WARNING:audio_manager.cc(275)] Multiple instances of AudioManager detected</tspan>
<tspan x="10" y="666">&gt; server listening on http-port 33702</tspan>
<tspan x="10" y="682">[4850:0408/065335:ERROR:sandbox_linux.cc(343)] InitializeSandbox() called with multiple threads \</tspan>
<tspan x="10" y="698">in process gpu-process. </tspan>
<tspan x="10" y="714">[4809:0408/065335:ERROR:browser_gpu_channel_host_factory.cc(131)] Failed to create channel.</tspan>
<tspan x="10" y="730">merging file:///home/travis/build/npmdoc/node-npmdoc-statsd/tmp/build/test-report.json to test-r\</tspan>
<tspan x="10" y="746">eport</tspan>
<tspan x="10" y="762">Xlib:  extension "RANDR" missing on display ":99.0".</tspan>
<tspan x="10" y="778">[4824:0408/065336:WARNING:audio_manager.cc(314)] Multiple instances of AudioManager detected</tspan>
<tspan x="10" y="794">[4824:0408/065336:WARNING:audio_manager.cc(275)] Multiple instances of AudioManager detected</tspan>
<tspan x="10" y="810">[4884:0408/065336:ERROR:sandbox_linux.cc(343)] InitializeSandbox() called with multiple threads \</tspan>
<tspan x="10" y="826">in process gpu-process. </tspan>
<tspan x="10" y="842"></tspan>
<tspan x="10" y="858">browserTest - opened url /home/travis/build/npmdoc/node-npmdoc-statsd/tmp/build/apidoc.html</tspan>
<tspan x="10" y="874"></tspan>
<tspan x="10" y="890">[4824:0408/065336:ERROR:browser_gpu_channel_host_factory.cc(131)] Failed to create channel.</tspan>
<tspan x="10" y="906"></tspan>
<tspan x="10" y="922">browserTest - opened url http://127.0.0.1:34022?modeTest=1</tspan>
<tspan x="10" y="938"></tspan>
<tspan x="10" y="954">[4824:0408/065337:INFO:CONSOLE(248)] "----------|-----------|-----------|-----------|-----------\</tspan>
<tspan x="10" y="970">|</tspan>
<tspan x="10" y="986">File      |   % Stmts |% Branches |   % Funcs |   % Lines |</tspan>
<tspan x="10" y="1002">----------|-----------|-----------|-----------|-----------|</tspan>
<tspan x="10" y="1018">----------|-----------|-----------|-----------|-----------|</tspan>
<tspan x="10" y="1034">All files |       100 |       100 |       100 |       100 |</tspan>
<tspan x="10" y="1050">----------|-----------|-----------|-----------|-----------|</tspan>
<tspan x="10" y="1066">", source: file:///home/travis/build/npmdoc/node-npmdoc-statsd/tmp/electron.15b4c56e65e0.7aff40d\</tspan>
<tspan x="10" y="1082">d71e73.html (248)</tspan>
<tspan x="10" y="1098">[4824:0408/065337:INFO:CONSOLE(248)] "created coverage file:///tmp/build/coverage.html/index.htm\</tspan>
<tspan x="10" y="1114">l", source: file:///home/travis/build/npmdoc/node-npmdoc-statsd/tmp/electron.15b4c56e65e0.7aff40\</tspan>
<tspan x="10" y="1130">dd71e73.html (248)</tspan>
<tspan x="10" y="1146">[node test-case 4 of 6 passed] - testCase_buildApp_default</tspan>
<tspan x="10" y="1162"></tspan>
<tspan x="10" y="1178">browserTest - created screenCapture file:///home/travis/build/npmdoc/node-npmdoc-statsd/tmp/buil\</tspan>
<tspan x="10" y="1194">d/screenCapture.npmTest.browser.%2Fhome%2Ftravis%2Fbuild%2Fnpmdoc%2Fnode-npmdoc-statsd%2Ftmp%2Fb\</tspan>
<tspan x="10" y="1210">uild%2Fapidoc.html.png</tspan>
<tspan x="10" y="1226"></tspan>
<tspan x="10" y="1242">browserTest - created screenCapture file:///home/travis/build/npmdoc/node-npmdoc-statsd/tmp/buil\</tspan>
<tspan x="10" y="1258">d/screenCapture.npmTest.browser.%2Fhome%2Ftravis%2Fbuild%2Fnpmdoc%2Fnode-npmdoc-statsd%2Ftmp%2Fb\</tspan>
<tspan x="10" y="1274">uild%2Fapidoc.html.html</tspan>
<tspan x="10" y="1290"></tspan>
<tspan x="10" y="1306">browserTest - exit-code 0 - /home/travis/build/npmdoc/node-npmdoc-statsd/tmp/build/apidoc.html</tspan>
<tspan x="10" y="1322"></tspan>
<tspan x="10" y="1338">[node test-case 5 of 6 passed] - testCase_buildApidoc_default</tspan>
<tspan x="10" y="1354"></tspan>
<tspan x="10" y="1370">browserTest - created screenCapture file:///home/travis/build/npmdoc/node-npmdoc-statsd/tmp/buil\</tspan>
<tspan x="10" y="1386">d/screenCapture.npmTest.browser.%2F.png</tspan>
<tspan x="10" y="1402"></tspan>
<tspan x="10" y="1418">browserTest - created screenCapture file:///home/travis/build/npmdoc/node-npmdoc-statsd/tmp/buil\</tspan>
<tspan x="10" y="1434">d/screenCapture.npmTest.browser.%2F.html</tspan>
<tspan x="10" y="1450"></tspan>
<tspan x="10" y="1466">browserTest - exit-code 0 - http://127.0.0.1:34022?modeTest=1</tspan>
<tspan x="10" y="1482"></tspan>
<tspan x="10" y="1498"></tspan>
<tspan x="10" y="1514">browserTest - merged coverage from /home/travis/build/npmdoc/node-npmdoc-statsd/tmp/coverage.npm\</tspan>
<tspan x="10" y="1530">Test.browser.%2F.json</tspan>
<tspan x="10" y="1546"></tspan>
<tspan x="10" y="1562"></tspan>
<tspan x="10" y="1578">browserTest - merging test-report from /home/travis/build/npmdoc/node-npmdoc-statsd/tmp/test-rep\</tspan>
<tspan x="10" y="1594">ort.npmTest.browser.%2F.json</tspan>
<tspan x="10" y="1610"></tspan>
<tspan x="10" y="1626">[node test-case 6 of 6 passed] - testCase_webpage_default</tspan>
<tspan x="10" y="1642">---------------------------|-----------|-----------|-----------|-----------|</tspan>
<tspan x="10" y="1658">File                       |   % Stmts |% Branches |   % Funcs |   % Lines |</tspan>
<tspan x="10" y="1674">---------------------------|-----------|-----------|-----------|-----------|</tspan>
<tspan x="10" y="1690">   node-npmdoc-statsd/     |       100 |       100 |       100 |       100 |</tspan>
<tspan x="10" y="1706">      example.js           |       100 |       100 |       100 |       100 |</tspan>
<tspan x="10" y="1722">      lib.npmdoc_statsd.js |       100 |       100 |       100 |       100 |</tspan>
<tspan x="10" y="1738">      test.js              |       100 |       100 |       100 |       100 |</tspan>
<tspan x="10" y="1754">---------------------------|-----------|-----------|-----------|-----------|</tspan>
<tspan x="10" y="1770">All files                  |       100 |       100 |       100 |       100 |</tspan>
<tspan x="10" y="1786">---------------------------|-----------|-----------|-----------|-----------|</tspan>
<tspan x="10" y="1802"></tspan>
<tspan x="10" y="1818">created coverage file:///home/travis/build/npmdoc/node-npmdoc-statsd/tmp/build/coverage.html/ind\</tspan>
<tspan x="10" y="1834">ex.html</tspan>
<tspan x="10" y="1850">merging file:///home/travis/build/npmdoc/node-npmdoc-statsd/tmp/build/test-report.json to test-r\</tspan>
<tspan x="10" y="1866">eport</tspan>
<tspan x="10" y="1882"></tspan>
<tspan x="10" y="1898">-------------------------------------------------------</tspan>
<tspan x="10" y="1914">| test-report - buildNpmdoc - node - linux v6.10.2 - 2017-04-08T06:53:14.224Z</tspan>
<tspan x="10" y="1930">|   35732 ms            0 failed        6 passed      |</tspan>
<tspan x="10" y="1946">-------------------------------------------------------</tspan>
<tspan x="10" y="1962"></tspan>
<tspan x="10" y="1978">created test-report file:///home/travis/build/npmdoc/node-npmdoc-statsd/tmp/build/test-report.ht\</tspan>
<tspan x="10" y="1994">ml</tspan>
<tspan x="10" y="2010"></tspan>
<tspan x="10" y="2026"></tspan>
<tspan x="10" y="2042">npmTest - 0 failed tests</tspan>
<tspan x="10" y="2058"></tspan>
<tspan x="10" y="2074"></tspan>
<tspan x="10" y="2090">[MODE_BUILD=npmTest] - 2017-04-08T06:53:53Z - EXIT_CODE - 0</tspan>
</text>
</svg>
